  -------------------------PEARL HARBOR(2001)-------------------------------------

        
  Ben Affleck  ...  Capt. Rafe McCawley
  
  Josh Hartnett  ...  Capt. Danny Walker
  
  Kate Beckinsale  ...  Nurse Lt. Evelyn Johnson
  
  Cuba Gooding Jr.  ...  Petty Officer Doris Miller 
 
  Jon Voight  ...  President Franklin Delano Roosevelt
  
  Alec Baldwin  ...  Lt. Col. James Doolittle 
 
  Tom Sizemore  ...  Sgt. Earl Sistern 
 
  William Lee Scott  ...  Lt. Billy Thompson
  
  Greg Zola  ...  Lt. Anthony Fusco  
   
  Jaime King  ...  Nurse Betty Bayer (as James King) 
 
  Catherine Kellner  ...  Nurse Barbara 
 
  Jennifer Garner  ...  Nurse Sandra 
 
  Sara Rue  ...  Nurse Martha 
 
  Michael Shannon  ...  Lt. Gooz Wood 


----------------------------------General---------------------------------------- 
Format : AVI 
Format/Info : Audio Video Interleave 
File size : 700 MiB 
Duration : 2h 55mn 
Overall bit rate : 557 Kbps 
Writing application : VirtualDubMod 1.5.10.2 (build 2540/release) 
Writing library : VirtualDubMod build 2540/release 

---------------------------------Video--------------------------------------------- 
Format : MPEG-4 Visual 
Format profile : Advanced Simple@L5 
Format settings, BVOP : Yes 
Format settings, QPel : No 
Format settings, GMC : No warppoints 
Format settings, Matrix : Default (MPEG) 
Codec ID : XVID 
Codec ID/Hint : XviD 
Duration : 2h 55mn 
Bit rate : 456 Kbps 
Width : 540 pixels 
Height : 220 pixels 
Display aspect ratio : 2.455 
Frame rate : 25.000 fps 
Color space : YUV 
Chroma subsampling : 4:2:0 
Bit depth : 8 bits 
Scan type : Progressive 
Bits/(Pixel*Frame) : 0.153 
Stream size : 573 MiB (82%) 
Writing library : XviD 1.1.2 (UTC 2006-11-01) 

---------------------------Audio-------------------------------------------------- 
ID : 1 
Format : MPEG Audio 
Format version : Version 1 
Format profile : Layer 3 
Mode : Joint stereo 
Mode extension : MS Stereo 
Codec ID : 55 
Codec ID/Hint : MP3 
Duration : 2h 55mn 
Bit rate mode : Constant 
Bit rate : 96.0 Kbps 
Channel(s) : 2 channels 
Sampling rate : 48.0 KHz 
Stream size : 121 MiB (17%) 
Alignment : Aligned on interleaves 
Interleave, duration : 400 ms (10.00 video frames) 
Interleave, preload duration : 504 ms 
Writing library : LAME3.97 (beta) 

 
---------------------------Box Office----------------------------------------
Budget:$140,000,000 (estimated) 
Opening Weekend:$75,177,654 (USA) (27 May 2001) (3214 Screens) 
Gross:$198,539,855 (USA) (2 December 2001) 

-----------------------------Storyline----------------------------------------
Pearl Harbor is a classic tale of romance set during a war that complicates everything. It all starts when childhood friends Rafe and Danny become Army Air Corps pilots and meet Evelyn, a Navy nurse. Rafe falls head over heels and next thing you know Evelyn and Rafe are hooking up. Then Rafe volunteers to go fight in Britain and Evelyn and Danny get transferred to Pearl Harbor. While Rafe is off fighting everything gets completely whack and next thing you know everybody is in the middle of an air raid we now know as "Pearl Harbor."

-------------------------------SCREENSHOTS----------------------------------------
------------------------http://bayimg.com/cADDJaADf-----------------------------